<svg width="15" height="15" viewBox="0 0 15 15" fill="none" xmlns="http://www.w3.org/2000/svg"><path d="M8.8259 1.50584C8.7578 1.22097 8.50308 1.01953 8.21018 1.01953H6.78988C6.49698 1.01953 6.24226 1.22097 6.17416 1.50584L5.85856 2.82502C5.80256 2.84205 5.74712 2.86038 5.69235 2.88002L4.52277 2.19933C4.27063 2.05255 3.95246 2.09475 3.7476 2.29961L2.74308 3.30413C2.53822 3.50899 2.49602 3.82716 2.6428 4.0793L3.32349 5.24888C3.30385 5.30365 3.28552 5.35909 3.26849 5.41509L1.94931 5.73069C1.66444 5.79879 1.463 6.05351 1.463 6.34641V7.76671C1.463 8.05961 1.66444 8.31433 1.94931 8.38243L3.26849 8.69803C3.28552 8.75403 3.30385 8.80947 3.32349 8.86424L2.6428 10.0338C2.49602 10.2859 2.53822 10.6041 2.74308 10.809L3.7476 11.8135C3.95246 12.0184 4.27063 12.0606 4.52277 11.9138L5.69235 11.2331C5.74712 11.2528 5.80256 11.2711 5.85856 11.2881L6.17416 12.6073C6.24226 12.8922 6.49698 13.0936 6.78988 13.0936H8.21018C8.50308 13.0936 8.7578 12.8922 8.8259 12.6073L9.1415 11.2881C9.1975 11.2711 9.25294 11.2528 9.30771 11.2331L10.4773 11.9138C10.7294 12.0606 11.0476 12.0184 11.2525 11.8135L12.257 10.809C12.4618 10.6041 12.504 10.2859 12.3572 10.0338L11.6765 8.86424C11.6962 8.80947 11.7145 8.75403 11.7315 8.69803L13.0507 8.38243C13.3356 8.31433 13.537 8.05961 13.537 7.76671V6.34641C13.537 6.05351 13.3356 5.79879 13.0507 5.73069L11.7315 5.41509C11.7145 5.35909 11.6962 5.30365 11.6765 5.24888L12.3572 4.0793C12.504 3.82716 12.4618 3.50899 12.257 3.30413L11.2525 2.29961C11.0476 2.09475 10.7294 2.05255 10.4773 2.19933L9.30771 2.88002C9.25294 2.86038 9.1975 2.84205 9.1415 2.82502L8.8259 1.50584ZM7.5 9.59355C8.74264 9.59355 9.75 8.58619 9.75 7.34355C9.75 6.10091 8.74264 5.09355 7.5 5.09355C6.25736 5.09355 5.25 6.10091 5.25 7.34355C5.25 8.58619 6.25736 9.59355 7.5 9.59355Z" fill="currentColor"/></svg>
